#
# Space for comments
##
 #
:FULLY-SPECIFIED
:DEGREES
1
root -1.244205 36.710186 -1.148101 0.958161 4.190043 -18.282991
hips 0.000000 0.000000 0.000000
chest 15.511776 -2.804996 -0.725314
neck 48.559605 0.000000 0.014236
head -38.332661 1.462782 -1.753684
leftcollar 0.000000 15.958783 0.921166
leftuparm -10.319685 -15.040003 63.091194
leftlowarm -27.769176 -15.856658 8.187016
lefthand 2.601753 -0.217064 -5.543770
rightcollar 0.000000 -8.470076 2.895008
rightuparm 6.496142 9.551583 -57.854118
rightlowarm -26.983490 11.338276 -5.716377
righthand -6.387745 -1.258509 5.876069
leftupleg 23.412262 -5.325913 12.099395
leftlowleg -6.933442 -6.276054 -1.363996
leftfoot -1.877641 4.455667 -6.275022
rightupleg 20.698696 3.189690 -8.377244
rightlowleg 3.445840 -6.717122 2.046032
rightfoot -8.162314 0.687809 9.000264
2
root -0.227361 37.620358 1.672587 0.204373 -4.264866 -12.155879
hips 0.000000 0.000000 0.000000
chest 14.747641 2.858763 -1.345236
neck 44.651531 0.000000 -0.099206
head -38.546989 0.678145 -4.633668
leftcollar 0.000000 7.233337 -5.791124
leftuparm 9.928153 -50.015823 25.218475
leftlowarm -40.443512 -0.566324 0.482702
lefthand 6.011584 -0.216811 4.576208
rightcollar 0.000000 -1.936009 5.471129
rightuparm 3.926107 32.418419 -26.396805
rightlowarm -43.958717 3.548671 -3.415734
righthand -4.901258 -0.112565 0.681468
leftupleg 11.932759 0.406248 -1.921313
leftlowleg 13.698170 5.503362 2.643481
leftfoot -16.237123 2.755839 -7.182952
rightupleg 13.767217 0.331739 -1.353482
rightlowleg 22.576195 -7.388037 -3.537788
rightfoot -19.946142 2.525145 8.668705
